<?xml version="1.0" standalone="no"?>
<!DOCTYPE svg PUBLIC "-//W3C//DTD SVG 20010904//EN"
 "http://www.w3.org/TR/2001/REC-SVG-20010904/DTD/svg10.dtd">
<svg version="1.0" xmlns="http://www.w3.org/2000/svg"
 width="2000.000000pt" height="2000.000000pt" viewBox="0 0 2000.000000 2000.000000"
 preserveAspectRatio="xMidYMid meet">
<metadata>
Created by potrace 1.14, written by Peter Selinger 2001-2017
</metadata>
<g transform="translate(0.000000,2000.000000) scale(0.100000,-0.100000)"
fill="#000000" stroke="none">
<path d="M9609 19006 c-2 -2 -70 -7 -151 -10 -81 -4 -157 -9 -170 -11 -13 -2
-63 -6 -112 -10 -50 -4 -97 -8 -105 -10 -9 -1 -47 -6 -86 -9 -38 -4 -81 -9
-95 -11 -14 -2 -63 -9 -110 -15 -47 -5 -96 -12 -110 -15 -14 -2 -54 -9 -90
-14 -539 -81 -1175 -247 -1714 -447 -135 -51 -402 -158 -491 -199 -33 -15 -91
-41 -130 -58 -148 -66 -527 -260 -670 -342 -313 -180 -568 -344 -855 -548
-177 -126 -513 -394 -666 -532 -6 -5 -49 -44 -95 -85 -145 -130 -370 -351
-544 -534 -530 -557 -1057 -1305 -1431 -2031 -81 -157 -125 -248 -247 -516
-14 -30 -59 -140 -101 -245 -306 -765 -485 -1473 -591 -2334 -11 -95 -35 -371
-42 -500 -16 -270 -7 -1109 12 -1234 2 -11 6 -61 10 -110 4 -50 8 -97 10 -105
1 -9 6 -47 9 -86 4 -38 16 -135 27 -215 164 -1197 564 -2342 1182 -3380 118
-200 252 -405 391 -600 81 -114 296 -399 321 -426 5 -7 26 -31 45 -55 45 -56
202 -242 209 -249 3 -3 46 -50 96 -105 208 -233 515 -535 750 -739 50 -44 104
-91 120 -105 17 -14 86 -71 155 -126 69 -55 127 -102 130 -105 10 -11 239
-179 335 -247 395 -277 741 -484 1175 -701 196 -98 305 -149 435 -204 39 -16
84 -35 100 -43 199 -88 634 -244 910 -324 77 -23 154 -45 170 -51 142 -44 630
-152 885 -195 52 -9 106 -18 120 -20 38 -7 397 -53 465 -60 33 -3 80 -8 105
-10 62 -6 180 -15 340 -25 136 -8 989 -6 1045 3 17 3 80 8 140 12 61 3 117 8
125 10 8 2 49 6 90 10 75 5 188 19 350 41 36 5 313 50 365 59 774 137 1593
408 2330 770 738 362 1411 813 2021 1356 183 163 515 486 601 585 10 12 55 61
99 110 45 49 114 127 154 174 40 47 84 99 99 115 14 17 42 50 61 75 19 25 37
47 40 50 4 3 56 70 117 150 778 1023 1303 2122 1602 3350 44 179 117 538 137
670 3 25 8 54 10 65 5 27 52 387 58 450 3 28 8 84 11 125 4 41 8 91 10 110 27
234 26 1276 0 1415 -2 11 -7 58 -10 105 -3 47 -8 99 -10 115 -2 17 -7 57 -10
90 -6 59 -50 382 -60 440 -68 389 -138 705 -217 975 -16 58 -32 112 -33 120
-6 28 -64 208 -106 332 -314 923 -755 1755 -1348 2543 -68 91 -268 343 -281
355 -3 3 -46 52 -95 110 -110 127 -299 332 -401 434 -72 71 -301 291 -339 326
-123 111 -219 194 -335 289 -69 57 -134 111 -145 120 -11 9 -99 75 -195 147
-994 743 -2081 1255 -3275 1544 -266 65 -641 136 -865 165 -25 3 -76 10 -115
15 -38 5 -92 12 -120 15 -27 3 -68 8 -90 10 -51 6 -129 13 -230 20 -44 3 -109
8 -145 11 -74 7 -935 16 -941 10z"/>
</g>
</svg>
